<svg id="visual" viewBox="0 0 960 540" width="960" height="540" xmlns="http://www.w3.org/2000/svg" xmlns:xlink="http://www.w3.org/1999/xlink" version="1.1"><rect x="0" y="0" width="960" height="540" fill="#000321"></rect><defs><linearGradient id="grad1_0" x1="43.8%" y1="100%" x2="100%" y2="0%"><stop offset="14.444444444444446%" stop-color="#000321" stop-opacity="1"></stop><stop offset="85.55555555555554%" stop-color="#000321" stop-opacity="1"></stop></linearGradient></defs><defs><linearGradient id="grad2_0" x1="0%" y1="100%" x2="56.3%" y2="0%"><stop offset="14.444444444444446%" stop-color="#000321" stop-opacity="1"></stop><stop offset="85.55555555555554%" stop-color="#000321" stop-opacity="1"></stop></linearGradient></defs><g transform="translate(960, 540)"><path d="M-243 0C-239.1 -31.1 -235.2 -62.1 -224.5 -93C-213.8 -123.9 -196.5 -154.6 -171.1 -171.1C-145.8 -187.6 -112.5 -189.9 -82.7 -199.6C-52.8 -209.2 -26.4 -226.1 0 -243L0 0Z" fill="#e38e0f"></path></g><g transform="translate(0, 0)"><path d="M243 0C223.9 25.7 204.8 51.4 194.9 80.7C185.1 110.1 184.4 143.2 169 169C153.6 194.8 123.6 213.4 93 224.5C62.4 235.6 31.2 239.3 0 243L0 0Z" fill="#e38e0f"></path></g></svg>